<?xml version="1.0" encoding="utf-8"?>
<!-- Generator: Adobe Illustrator 16.0.0, SVG Export Plug-In . SVG Version: 6.00 Build 0)  -->
<!DOCTYPE svg PUBLIC "-//W3C//DTD SVG 1.1//EN" "http://www.w3.org/Graphics/SVG/1.1/DTD/svg11.dtd">
<svg version="1.1" id="Layer_1" xmlns="http://www.w3.org/2000/svg" xmlns:xlink="http://www.w3.org/1999/xlink" x="0px" y="0px"
	 width="1280px" height="800px" viewBox="0 0 1280 800" enable-background="new 0 0 1280 800" xml:space="preserve">
<rect x="16.5" y="46.5" fill="#FFFFFF" stroke="#000000" stroke-miterlimit="10" width="136" height="25"/>
<rect x="173.5" y="46.5" fill="#FFFFFF" stroke="#000000" stroke-miterlimit="10" width="136" height="25"/>
<rect x="309.5" y="46.5" fill="#FFFFFF" stroke="#000000" stroke-miterlimit="10" width="136" height="25"/>
<rect x="445.5" y="46.5" fill="#FFFFFF" stroke="#000000" stroke-miterlimit="10" width="136" height="25"/>
<rect x="581.5" y="46.5" fill="#FFFFFF" stroke="#000000" stroke-miterlimit="10" width="136" height="25"/>
<rect x="717.5" y="46.5" fill="#FFFFFF" stroke="#000000" stroke-miterlimit="10" width="137" height="25"/>
<rect x="854.5" y="46.5" fill="#FFFFFF" stroke="#000000" stroke-miterlimit="10" width="135" height="25"/>
<rect x="989.5" y="46.5" fill="#FFFFFF" stroke="#000000" stroke-miterlimit="10" width="137" height="25"/>
<rect x="1126.5" y="46.5" fill="#FFFFFF" stroke="#000000" stroke-miterlimit="10" width="136" height="25"/>
<rect x="16.5" y="125.5" fill="#FFFFFF" stroke="#000000" stroke-miterlimit="10" width="136" height="24"/>
<rect x="309.5" y="125.5" fill="#FFFFFF" stroke="#000000" stroke-miterlimit="10" width="136" height="24"/>
<rect x="445.5" y="125.5" fill="#FFFFFF" stroke="#000000" stroke-miterlimit="10" width="136" height="24"/>
<rect x="581.5" y="125.5" fill="#FFFFFF" stroke="#000000" stroke-miterlimit="10" width="136" height="24"/>
<rect x="717.5" y="125.5" fill="#FFFFFF" stroke="#000000" stroke-miterlimit="10" width="137" height="24"/>
<rect x="854.5" y="125.5" fill="#FFFFFF" stroke="#000000" stroke-miterlimit="10" width="135" height="24"/>
<rect x="989.5" y="125.5" fill="#FFFFFF" stroke="#000000" stroke-miterlimit="10" width="137" height="24"/>
<rect x="16.5" y="202.5" fill="#FFFFFF" stroke="#000000" stroke-miterlimit="10" width="136" height="25"/>
<rect x="173.5" y="202.5" fill="#FFFFFF" stroke="#000000" stroke-miterlimit="10" width="136" height="25"/>
<rect x="717.5" y="202.5" fill="#FFFFFF" stroke="#000000" stroke-miterlimit="10" width="137" height="25"/>
<rect x="854.5" y="202.5" fill="#FFFFFF" stroke="#000000" stroke-miterlimit="10" width="135" height="25"/>
<rect x="989.5" y="202.5" fill="#FFFFFF" stroke="#000000" stroke-miterlimit="10" width="137" height="25"/>
<rect x="16.5" y="281.5" fill="#FFFFFF" stroke="#000000" stroke-miterlimit="10" width="136" height="24"/>
<rect x="173.5" y="281.5" fill="#FFFFFF" stroke="#000000" stroke-miterlimit="10" width="136" height="24"/>
<rect x="989.5" y="281.5" fill="#FFFFFF" stroke="#000000" stroke-miterlimit="10" width="137" height="24"/>
<rect x="16.5" y="359.5" fill="#FFFFFF" stroke="#000000" stroke-miterlimit="10" width="136" height="24"/>
<rect x="173.5" y="359.5" fill="#FFFFFF" stroke="#000000" stroke-miterlimit="10" width="136" height="24"/>
<rect x="854.5" y="359.5" fill="#FFFFFF" stroke="#000000" stroke-miterlimit="10" width="135" height="24"/>
<rect x="989.5" y="359.5" fill="#FFFFFF" stroke="#000000" stroke-miterlimit="10" width="137" height="24"/>
<rect x="16.5" y="436.5" fill="#FFFFFF" stroke="#000000" stroke-miterlimit="10" width="136" height="26"/>
<rect x="173.5" y="436.5" fill="#FFFFFF" stroke="#000000" stroke-miterlimit="10" width="136" height="26"/>
<rect x="581.5" y="436.5" fill="#FFFFFF" stroke="#000000" stroke-miterlimit="10" width="136" height="26"/>
<rect x="854.5" y="436.5" fill="#FFFFFF" stroke="#000000" stroke-miterlimit="10" width="135" height="26"/>
<rect x="16.5" y="514.5" fill="#FFFFFF" stroke="#000000" stroke-miterlimit="10" width="136" height="25"/>
<rect x="173.5" y="514.5" fill="#FFFFFF" stroke="#000000" stroke-miterlimit="10" width="136" height="25"/>
<rect x="309.5" y="514.5" fill="#FFFFFF" stroke="#000000" stroke-miterlimit="10" width="136" height="25"/>
<rect x="445.5" y="514.5" fill="#FFFFFF" stroke="#000000" stroke-miterlimit="10" width="136" height="25"/>
<rect x="581.5" y="514.5" fill="#FFFFFF" stroke="#000000" stroke-miterlimit="10" width="136" height="25"/>
<rect x="717.5" y="514.5" fill="#FFFFFF" stroke="#000000" stroke-miterlimit="10" width="137" height="25"/>
<rect x="854.5" y="514.5" fill="#FFFFFF" stroke="#000000" stroke-miterlimit="10" width="135" height="25"/>
<rect x="16.5" y="593.5" fill="#FFFFFF" stroke="#000000" stroke-miterlimit="10" width="136" height="25"/>
<rect x="173.5" y="593.5" fill="#FFFFFF" stroke="#000000" stroke-miterlimit="10" width="136" height="25"/>
<rect x="309.5" y="593.5" fill="#FFFFFF" stroke="#000000" stroke-miterlimit="10" width="136" height="25"/>
<rect x="445.5" y="593.5" fill="#FFFFFF" stroke="#000000" stroke-miterlimit="10" width="136" height="25"/>
<rect x="581.5" y="593.5" fill="#FFFFFF" stroke="#000000" stroke-miterlimit="10" width="136" height="25"/>
<rect x="717.5" y="593.5" fill="#FFFFFF" stroke="#000000" stroke-miterlimit="10" width="137" height="25"/>
<rect x="854.5" y="593.5" fill="#FFFFFF" stroke="#000000" stroke-miterlimit="10" width="135" height="25"/>
<rect x="989.5" y="593.5" fill="#FFFFFF" stroke="#000000" stroke-miterlimit="10" width="137" height="25"/>
<rect x="1126.5" y="593.5" fill="#FFFFFF" stroke="#000000" stroke-miterlimit="10" width="136" height="25"/>
<text transform="matrix(1 0 0 1 30.2969 64.4868)" font-family="'TitilliumWeb-Regular'" font-size="12">Market Analysis</text>
<text transform="matrix(1 0 0 1 30.2969 142.8652)" font-family="'TitilliumWeb-Regular'" font-size="12">Funding</text>
<text transform="matrix(1 0 0 1 30.2969 221.2437)" font-family="'TitilliumWeb-Regular'" font-size="12">Interaction Design</text>
<text transform="matrix(1 0 0 1 1084.7441 663.5)" font-family="'TitilliumWeb-Regular'" font-size="12">Money flow</text>
<text transform="matrix(1 0 0 1 1084.7441 701.5)" font-family="'TitilliumWeb-Regular'" font-size="12">Information Flow</text>
<text transform="matrix(1 0 0 1 1086.4111 734.5)" font-family="'TitilliumWeb-Regular'" font-size="12">Material Flow</text>
<text transform="matrix(1 0 0 1 30.2969 299.6221)" font-family="'TitilliumWeb-Regular'" font-size="12">Prototyping</text>
<text transform="matrix(1 0 0 1 30.2969 376.0005)" font-family="'TitilliumWeb-Regular'" font-size="12">Developement</text>
<text transform="matrix(1 0 0 1 30.2969 454)" font-family="'TitilliumWeb-Regular'" font-size="12">Testing</text>
<text transform="matrix(1 0 0 1 30.2969 533.7305)" font-family="'TitilliumWeb-Regular'" font-size="12">User Testing</text>
<text transform="matrix(1 0 0 1 30.2969 610.7578)" font-family="'TitilliumWeb-Regular'" font-size="12">Release</text>
<g>
	<line x1="240" y1="72" x2="240" y2="203"/>
	<g>
		<line fill="none" stroke="#000000" stroke-miterlimit="10" x1="240.5" y1="72" x2="240.5" y2="196"/>
		<g>
			<polygon points="240.5,203 236.435,193.051 240.5,195.412 244.564,193.051 			"/>
		</g>
	</g>
</g>
<rect x="173.5" y="125.5" fill="#FFFFFF" stroke="#000000" stroke-miterlimit="10" width="136" height="24"/>
<g>
	<line x1="276" y1="150" x2="276" y2="203"/>
	<g>
		<line fill="none" stroke="#000000" stroke-miterlimit="10" x1="276.5" y1="150" x2="276.5" y2="153"/>
		<line fill="none" stroke="#000000" stroke-miterlimit="10" stroke-dasharray="5,5" x1="276.5" y1="157" x2="276.5" y2="191"/>
		<line fill="none" stroke="#000000" stroke-miterlimit="10" x1="276.5" y1="193" x2="276.5" y2="196"/>
		<g>
			<polygon points="276.5,203 272.435,193.051 276.5,195.412 280.564,193.051 			"/>
		</g>
	</g>
</g>
<g>
	<line x1="377" y1="229" x2="377" y2="283"/>
	<g>
		<line fill="none" stroke="#000000" stroke-miterlimit="10" stroke-dasharray="1,3" x1="377.5" y1="229" x2="377.5" y2="276"/>
		<g>
			<polygon points="377.5,283 373.435,273.051 377.5,275.412 381.564,273.051 			"/>
		</g>
	</g>
</g>
<g>
	<line x1="340" y1="151" x2="340" y2="361"/>
	<g>
		<line fill="none" stroke="#000000" stroke-miterlimit="10" stroke-dasharray="5,5" x1="340.5" y1="151" x2="340.5" y2="354"/>
		<g>
			<polygon points="340.5,361 336.435,351.051 340.5,353.412 344.564,351.051 			"/>
		</g>
	</g>
</g>
<g>
	<line x1="649" y1="150" x2="649" y2="437"/>
	<g>
		<line fill="none" stroke="#000000" stroke-miterlimit="10" stroke-dasharray="5,5" x1="649.5" y1="150" x2="649.5" y2="430"/>
		<g>
			<polygon points="649.5,437 645.435,427.051 649.5,429.412 653.564,427.051 			"/>
		</g>
	</g>
</g>
<rect x="445.5" y="202.5" fill="#FFFFFF" stroke="#000000" stroke-miterlimit="10" width="136" height="25"/>
<rect x="581.5" y="202.5" fill="#FFFFFF" stroke="#000000" stroke-miterlimit="10" width="136" height="25"/>
<rect x="581.5" y="281.5" fill="#FFFFFF" stroke="#000000" stroke-miterlimit="10" width="136" height="24"/>
<rect x="581.5" y="359.5" fill="#FFFFFF" stroke="#000000" stroke-miterlimit="10" width="136" height="24"/>
<g>
	<line fill="#FFFFFF" x1="550" y1="306" x2="550" y2="360"/>
	<g>
		<line fill="none" stroke="#000000" stroke-miterlimit="10" stroke-dasharray="1,3" x1="550.5" y1="306" x2="550.5" y2="353"/>
		<g>
			<polygon points="550.5,360 546.435,350.051 550.5,352.412 554.564,350.051 			"/>
		</g>
	</g>
</g>
<g>
	<line fill="#FFFFFF" x1="611" y1="384" x2="611" y2="437"/>
	<g>
		<line fill="none" stroke="#000000" stroke-miterlimit="10" stroke-dasharray="1,3" x1="611.5" y1="384" x2="611.5" y2="430"/>
		<g>
			<polygon points="611.5,437 607.435,427.051 611.5,429.412 615.564,427.051 			"/>
		</g>
	</g>
</g>
<g>
	<line fill="#FFFFFF" x1="682" y1="437" x2="682" y2="384"/>
	<g>
		<line fill="none" stroke="#000000" stroke-miterlimit="10" x1="682.5" y1="437" x2="682.5" y2="391"/>
		<g>
			<polygon points="682.5,384 686.565,393.949 682.5,391.588 678.436,393.949 			"/>
		</g>
	</g>
</g>
<g>
	<line fill="#FFFFFF" x1="785" y1="384" x2="785" y2="515"/>
	<g>
		<line fill="none" stroke="#000000" stroke-miterlimit="10" stroke-dasharray="1,3" x1="785.5" y1="384" x2="785.5" y2="508"/>
		<g>
			<polygon points="785.5,515 781.435,505.051 785.5,507.412 789.564,505.051 			"/>
		</g>
	</g>
</g>
<g>
	<line fill="#FFFFFF" x1="820" y1="515" x2="820" y2="228"/>
	<g>
		<line fill="none" stroke="#000000" stroke-miterlimit="10" x1="820.5" y1="515" x2="820.5" y2="235"/>
		<g>
			<polygon points="820.5,228 824.565,237.949 820.5,235.588 816.436,237.949 			"/>
		</g>
	</g>
</g>
<rect x="717.5" y="436.5" fill="#FFFFFF" stroke="#000000" stroke-miterlimit="10" width="137" height="26"/>
<rect x="717.5" y="281.5" fill="#FFFFFF" stroke="#000000" stroke-miterlimit="10" width="137" height="24"/>
<rect x="717.5" y="359.5" fill="#FFFFFF" stroke="#000000" stroke-miterlimit="10" width="137" height="24"/>
<g>
	<line fill="#FFFFFF" x1="921" y1="228" x2="921" y2="360"/>
	<g>
		<line fill="none" stroke="#000000" stroke-miterlimit="10" x1="921.5" y1="228" x2="921.5" y2="353"/>
		<g>
			<polygon points="921.5,360 917.435,350.051 921.5,352.412 925.564,350.051 			"/>
		</g>
	</g>
</g>
<g>
	<line fill="#FFFFFF" x1="953" y1="384" x2="953" y2="437"/>
	<g>
		<line fill="none" stroke="#000000" stroke-miterlimit="10" x1="953.5" y1="384" x2="953.5" y2="430"/>
		<g>
			<polygon points="953.5,437 949.435,427.051 953.5,429.412 957.564,427.051 			"/>
		</g>
	</g>
</g>
<g>
	<line fill="#FFFFFF" x1="1057" y1="384" x2="1057" y2="594"/>
	<g>
		<line fill="none" stroke="#000000" stroke-miterlimit="10" stroke-dasharray="1,3" x1="1057.5" y1="384" x2="1057.5" y2="587"/>
		<g>
			<polygon points="1057.5,594 1053.435,584.051 1057.5,586.412 1061.564,584.051 			"/>
		</g>
	</g>
</g>
<g>
	<line fill="#FFFFFF" x1="1157" y1="594" x2="1157" y2="72"/>
	<g>
		<line fill="none" stroke="#000000" stroke-miterlimit="10" x1="1157.5" y1="594" x2="1157.5" y2="79"/>
		<g>
			<polygon points="1157.5,72 1161.565,81.949 1157.5,79.588 1153.436,81.949 			"/>
		</g>
	</g>
</g>
<g>
	<line fill="#FFFFFF" x1="1194" y1="594" x2="1194" y2="228"/>
	<g>
		<line fill="none" stroke="#000000" stroke-miterlimit="10" x1="1194.5" y1="594" x2="1194.5" y2="235"/>
		<g>
			<polygon points="1194.5,228 1198.565,237.949 1194.5,235.588 1190.436,237.949 			"/>
		</g>
	</g>
</g>
<g>
	<line fill="#FFFFFF" x1="1228" y1="594" x2="1228" y2="150"/>
	<g>
		<line fill="none" stroke="#000000" stroke-miterlimit="10" stroke-dasharray="5,5" x1="1228.5" y1="594" x2="1228.5" y2="157"/>
		<g>
			<polygon points="1228.5,150 1232.565,159.949 1228.5,157.588 1224.436,159.949 			"/>
		</g>
	</g>
</g>
<rect x="1126.5" y="125.5" fill="#FFFFFF" stroke="#000000" stroke-miterlimit="10" width="136" height="24"/>
<rect x="1126.5" y="202.5" fill="#FFFFFF" stroke="#000000" stroke-miterlimit="10" width="136" height="25"/>
<rect x="1126.5" y="281.5" fill="#FFFFFF" stroke="#000000" stroke-miterlimit="10" width="136" height="24"/>
<rect x="1126.5" y="359.5" fill="#FFFFFF" stroke="#000000" stroke-miterlimit="10" width="136" height="24"/>
<rect x="989.5" y="436.5" fill="#FFFFFF" stroke="#000000" stroke-miterlimit="10" width="137" height="26"/>
<rect x="1126.5" y="436.5" fill="#FFFFFF" stroke="#000000" stroke-miterlimit="10" width="136" height="26"/>
<rect x="1126.5" y="514.5" fill="#FFFFFF" stroke="#000000" stroke-miterlimit="10" width="136" height="25"/>
<g>
	<line x1="415" y1="307" x2="415" y2="516"/>
	<g>
		<line fill="none" stroke="#000000" stroke-miterlimit="10" x1="415.5" y1="307" x2="415.5" y2="509"/>
		<g>
			<polygon points="415.5,516 411.435,506.051 415.5,508.412 419.564,506.051 			"/>
		</g>
	</g>
</g>
<g>
	<line x1="473" y1="516" x2="473" y2="228"/>
	<g>
		<line fill="none" stroke="#000000" stroke-miterlimit="10" x1="473.5" y1="516" x2="473.5" y2="235"/>
		<g>
			<polygon points="473.5,228 477.565,237.949 473.5,235.588 469.436,237.949 			"/>
		</g>
	</g>
</g>
<g>
	<line x1="513" y1="229" x2="513" y2="283"/>
	<g>
		<line fill="none" stroke="#000000" stroke-miterlimit="10" stroke-dasharray="1,3" x1="513.5" y1="229" x2="513.5" y2="276"/>
		<g>
			<polygon points="513.5,283 509.435,273.051 513.5,275.412 517.564,273.051 			"/>
		</g>
	</g>
</g>
<g>
	<line fill="#FFFFFF" x1="953" y1="662" x2="1057" y2="662"/>
	<g>
		<line fill="none" stroke="#000000" stroke-miterlimit="10" stroke-dasharray="5,5" x1="953" y1="661.5" x2="1050" y2="661.5"/>
		<g>
			<polygon points="1057,661.5 1047.051,665.565 1049.412,661.5 1047.051,657.436 			"/>
		</g>
	</g>
</g>
<g>
	<line fill="#FFFFFF" x1="953" y1="701" x2="1057" y2="701"/>
	<g>
		<line fill="none" stroke="#000000" stroke-miterlimit="10" x1="953" y1="700.5" x2="1050" y2="700.5"/>
		<g>
			<polygon points="1057,700.5 1047.051,704.565 1049.412,700.5 1047.051,696.436 			"/>
		</g>
	</g>
</g>
<rect x="309.5" y="281.5" fill="#FFFFFF" stroke="#000000" stroke-miterlimit="10" width="136" height="24"/>
<rect x="309.5" y="359.5" fill="#FFFFFF" stroke="#000000" stroke-miterlimit="10" width="136" height="24"/>
<rect x="445.5" y="359.5" fill="#FFFFFF" stroke="#000000" stroke-miterlimit="10" width="136" height="24"/>
<rect x="309.5" y="436.5" fill="#FFFFFF" stroke="#000000" stroke-miterlimit="10" width="136" height="26"/>
<rect x="445.5" y="436.5" fill="#FFFFFF" stroke="#000000" stroke-miterlimit="10" width="136" height="26"/>
<rect x="989.5" y="514.5" fill="#FFFFFF" stroke="#000000" stroke-miterlimit="10" width="137" height="25"/>
<rect x="445.5" y="281.5" fill="#FFFFFF" stroke="#000000" stroke-miterlimit="10" width="136" height="24"/>
<g>
	<line fill="#FFFFFF" x1="953" y1="735" x2="1057" y2="735"/>
	<g>
		<line fill="none" stroke="#000000" stroke-miterlimit="10" stroke-dasharray="1,3" x1="953" y1="734.5" x2="1050" y2="734.5"/>
		<g>
			<polygon points="1057,734.5 1047.051,738.565 1049.412,734.5 1047.051,730.436 			"/>
		</g>
	</g>
</g>
<rect x="309.5" y="202.5" fill="#FFFFFF" stroke="#000000" stroke-miterlimit="10" width="136" height="25"/>
<rect x="854.5" y="281.5" fill="#FFFFFF" stroke="#000000" stroke-miterlimit="10" width="135" height="24"/>
</svg>
