<?xml version="1.0" encoding="utf-8"?>
<!-- Generator: Adobe Illustrator 16.0.0, SVG Export Plug-In . SVG Version: 6.00 Build 0)  -->
<!DOCTYPE svg PUBLIC "-//W3C//DTD SVG 1.1//EN" "http://www.w3.org/Graphics/SVG/1.1/DTD/svg11.dtd">
<svg version="1.1" id="Layer_1" xmlns="http://www.w3.org/2000/svg" xmlns:xlink="http://www.w3.org/1999/xlink" x="0px" y="0px"
	 width="640px" height="480px" viewBox="0 0 640 480" enable-background="new 0 0 640 480" xml:space="preserve">
<rect x="130.5" y="15.5" fill="#FFFFFF" stroke="#000000" stroke-miterlimit="10" width="368" height="440"/>
<rect x="143.211" y="31.528" fill="none" width="348.781" height="414.634"/>
<text transform="matrix(1 0 0 1 143.2114 41.5803)" font-family="'TitilliumWeb-Regular'" font-size="14">II - Interaction Design</text>
<text transform="matrix(1 0 0 1 143.2114 75.1799)" font-family="'TitilliumWeb-Regular'" font-size="14">01. Subject: User Experience Designer</text>
<text transform="matrix(1 0 0 1 143.2114 108.7795)" font-family="'TitilliumWeb-Regular'" font-size="14">02. Object: Templates, ideas, concept </text>
<text transform="matrix(1 0 0 1 143.2114 142.3801)" font-family="'TitilliumWeb-Regular'" font-size="14">03. Outcome: Wireframes, Hero Flows</text>
<text transform="matrix(1 0 0 1 143.2114 175.9797)" font-family="'TitilliumWeb-Regular'" font-size="14">04. Mediating Artifacts: Paper prototypes, Wireframes</text>
<text transform="matrix(1 0 0 1 143.2114 192.7795)" font-family="'TitilliumWeb-Regular'" font-size="14">       Sketches, Adobe Illustrator/Inkscape, Research/Analysis </text>
<text transform="matrix(1 0 0 1 143.2114 226.3801)" font-family="'TitilliumWeb-Regular'" font-size="14">05. Rules: Android/Windows Phone/iOS interaction </text>
<text transform="matrix(1 0 0 1 143.2114 243.1799)" font-family="'TitilliumWeb-Regular'" font-size="14">       patterns</text>
<text transform="matrix(1 0 0 1 143.2114 276.7795)" font-family="'TitilliumWeb-Regular'" font-size="14">06. Community: IxDA forum</text>
<text transform="matrix(1 0 0 1 143.2114 310.3801)" font-family="'TitilliumWeb-Regular'" font-size="14">07. Roles: User Experience Designers, Interaction</text>
<text transform="matrix(1 0 0 1 143.2114 327.1799)" font-family="'TitilliumWeb-Regular'" font-size="14">       Designers, Product Menagers</text>
</svg>
