<?xml version="1.0" encoding="utf-8"?>
<!-- Generator: Adobe Illustrator 16.0.0, SVG Export Plug-In . SVG Version: 6.00 Build 0)  -->
<!DOCTYPE svg PUBLIC "-//W3C//DTD SVG 1.1//EN" "http://www.w3.org/Graphics/SVG/1.1/DTD/svg11.dtd">
<svg version="1.1" id="Layer_1" xmlns="http://www.w3.org/2000/svg" xmlns:xlink="http://www.w3.org/1999/xlink" x="0px" y="0px"
	 width="800px" height="600px" viewBox="0 0 800 600" enable-background="new 0 0 800 600" xml:space="preserve">
<rect id="rect6189" x="375.08" y="104.216" fill="none" width="192.579" height="128.253"/>
<rect id="rect6227" x="266.478" y="245.611" fill="none" stroke="#000000" stroke-linejoin="round" width="301.182" height="234.368"/>
<rect id="rect3190" x="266.478" y="104.216" fill="none" stroke="#000000" stroke-linejoin="round" width="94.755" height="128.253"/>
<text transform="matrix(1 0 0 1 283.5459 150.2417)" fill="none" stroke="#000000" stroke-miterlimit="10" font-family="'ArialMT'" font-size="20">Add a </text>
<text transform="matrix(1 0 0 1 283.5459 175.2417)" fill="none" stroke="#000000" stroke-miterlimit="10" font-family="'ArialMT'" font-size="20">picture </text>
<text transform="matrix(1 0 0 1 283.5459 200.2417)" fill="none" stroke="#000000" stroke-miterlimit="10" font-family="'ArialMT'" font-size="20">here</text>
<text transform="matrix(1 0 0 1 382.541 116.2944)" font-family="'TitilliumWeb-Bold'" font-size="12">Seena Peethambaran</text>
<text transform="matrix(1 0 0 1 382.541 130.6948)" font-family="'TitilliumWeb-Bold'" font-size="12">Age: 27</text>
<text transform="matrix(1 0 0 1 382.541 145.0942)" font-family="'TitilliumWeb-Bold'" font-size="12">Occupation: student</text>
<text transform="matrix(1 0 0 1 382.541 159.4946)" font-family="'TitilliumWeb-Bold'" font-size="12">Tech Knowledge: java, j2ee, c++,</text>
<text transform="matrix(1 0 0 1 382.541 173.894)" font-family="'TitilliumWeb-Bold'" font-size="12">linux, oracle, javascript, jquery,</text>
<text transform="matrix(1 0 0 1 382.541 188.2944)" font-family="'TitilliumWeb-Bold'" font-size="12">processing, arduino.</text>
<rect x="375.08" y="104.216" fill="none" stroke="#000000" stroke-miterlimit="10" width="192.579" height="128.253"/>
<g>
	<g>
		<defs>
			<rect id="SVGID_1_" x="266.478" y="104.216" width="94.755" height="128.253"/>
		</defs>
		<clipPath id="SVGID_2_">
			<use xlink:href="#SVGID_1_"  overflow="visible"/>
		</clipPath>
		<g clip-path="url(#SVGID_2_)">
			
				<image overflow="visible" enable-background="new    " width="800" height="800" xlink:href="personaSeenaPic.jpg"  transform="matrix(1 0 0 1 -7980.5635 -8321.2871)">
			</image>
		</g>
	</g>
</g>
<text transform="matrix(1 0 0 1 275.4775 269.7944)" font-family="'TitilliumWeb-Regular'" font-size="12">Seena is a student of MAIND master, she knows alot </text>
<text transform="matrix(1 0 0 1 275.4775 284.1948)" font-family="'TitilliumWeb-Regular'" font-size="12">about coding and not much about design. She comes </text>
<text transform="matrix(1 0 0 1 275.4775 298.5942)" font-family="'TitilliumWeb-Regular'" font-size="12">from India where she worked for Siemens Nokia stuff.</text>
<g>
	<defs>
		<rect id="SVGID_3_" x="266.478" y="104.216" width="94.755" height="128.253"/>
	</defs>
	<clipPath id="SVGID_4_">
		<use xlink:href="#SVGID_3_"  overflow="visible"/>
	</clipPath>
	<g clip-path="url(#SVGID_4_)">
		
			<image overflow="visible" width="800" height="800" xlink:href="personaSeenaPic.jpg"  transform="matrix(0.2108 0 0 0.2108 236.4463 101.1602)">
		</image>
	</g>
</g>
</svg>
