<?xml version="1.0" encoding="utf-8"?>
<!-- Generator: Adobe Illustrator 16.0.0, SVG Export Plug-In . SVG Version: 6.00 Build 0)  -->
<!DOCTYPE svg PUBLIC "-//W3C//DTD SVG 1.1//EN" "http://www.w3.org/Graphics/SVG/1.1/DTD/svg11.dtd">
<svg version="1.1" id="Layer_1" xmlns="http://www.w3.org/2000/svg" xmlns:xlink="http://www.w3.org/1999/xlink" x="0px" y="0px"
	 width="640px" height="480px" viewBox="0 0 640 480" enable-background="new 0 0 640 480" xml:space="preserve">
<rect x="130.5" y="15.5" fill="#FFFFFF" stroke="#000000" stroke-miterlimit="10" width="368" height="440"/>
<rect x="143.211" y="31.528" fill="none" width="348.781" height="414.634"/>
<text transform="matrix(1 0 0 1 143.2114 41.5803)" font-family="'TitilliumWeb-Regular'" font-size="14">VI - Release</text>
<text transform="matrix(1 0 0 1 143.2114 75.1799)" font-family="'TitilliumWeb-Regular'" font-size="14">01. Subject: Release Operator</text>
<text transform="matrix(1 0 0 1 143.2114 108.7795)" font-family="'TitilliumWeb-Regular'" font-size="14">02. Object: App Stores</text>
<text transform="matrix(1 0 0 1 143.2114 142.3801)" font-family="'TitilliumWeb-Regular'" font-size="14">03. Outcome: Revenue, User Feedback</text>
<text transform="matrix(1 0 0 1 143.2114 175.9797)" enable-background="new    "><tspan x="0" y="0" font-family="'TitilliumWeb-Regular'" font-size="14">04. Mediating Artifacts: Mobile market knowledge</tspan><tspan x="0" y="33.6" font-family="'TitilliumWeb-Regular'" font-size="14">05. Rules: App Stores ToS</tspan><tspan x="0" y="67.2" font-family="'TitilliumWeb-Regular'" font-size="14">06. Community: Smartphone users</tspan><tspan x="0" y="100.8" font-family="'TitilliumWeb-Regular'" font-size="14">07. Roles: Release Menager, Technical Support</tspan></text>
<text transform="matrix(1 0 0 1 143.2114 243.1799)" font-family="'TitilliumWeb-Regular'" font-size="14">       </text>
<text transform="matrix(1 0 0 1 143.2114 327.1799)" font-family="'TitilliumWeb-Regular'" font-size="14">       </text>
</svg>
